<?xml version="1.0" encoding="UTF-8"?>
<svg width="250px" height="91px" viewBox="0 0 250 91" version="1.1" xmlns="http://www.w3.org/2000/svg" xmlns:xlink="http://www.w3.org/1999/xlink">
    <title>teksial-logo</title>
    <defs>
        <polygon id="path-1" points="0 90.5515 249.012 90.5515 249.012 0.0005 0 0.0005"></polygon>
    </defs>
    <g id="LP" stroke="none" stroke-width="1" fill="none" fill-rule="evenodd">
        <g id="LP-UTCV" transform="translate(-806.000000, -115.000000)">
            <g id="teksial-logo" transform="translate(806.000000, 115.000000)">
                <path d="M8.6384,80.6335 L9.8854,80.6335 L9.8854,80.2415 C9.8854,78.4205 11.1744,77.2725 12.9804,77.2725 C13.4714,77.2725 13.8774,77.3275 14.1854,77.4115 L14.1854,78.9815 C13.9334,78.9105 13.5834,78.8685 13.1624,78.8685 C12.2664,78.8685 11.9164,79.3455 11.9164,80.2835 L11.9164,80.6335 L14.4094,80.6335 L14.4094,82.2165 L11.9724,82.2165 L11.9724,88.0015 L9.8854,88.0015 L9.8854,82.2165 L8.6384,82.2165 L8.6384,80.6335 Z" id="Fill-1" fill="#2D2D2C"></path>
                <path d="M19.9665,86.4607 L19.9665,84.7247 C17.9775,84.5837 17.4735,85.1307 17.4735,85.7047 C17.4735,86.2787 17.9495,86.6707 18.8185,86.6707 C19.2105,86.6707 19.6725,86.5727 19.9665,86.4607 M22.0535,82.9317 L22.0535,87.4277 C21.3815,87.8057 20.2745,88.1277 18.9025,88.1277 C16.8285,88.1277 15.4005,87.2867 15.4005,85.7187 C15.4005,83.6587 17.8515,83.3097 19.9665,83.4357 L19.9665,82.9447 C19.9665,82.3007 19.7145,81.8237 18.6925,81.8237 C17.8655,81.8237 16.9545,81.9927 16.0165,82.4967 L16.0165,80.8577 C17.0385,80.3537 17.9355,80.1997 19.0845,80.1997 C21.3815,80.1997 22.0535,81.5717 22.0535,82.9317" id="Fill-3" fill="#2D2D2C"></path>
                <path d="M29.8376,80.8015 L29.8376,82.4545 C29.3056,82.1045 28.5346,81.8805 27.8206,81.8805 C26.3356,81.8805 25.6356,82.6935 25.6356,84.1775 C25.6356,85.6625 26.3356,86.4605 27.8206,86.4605 C28.5346,86.4605 29.2076,86.2505 29.8376,85.8725 L29.8376,87.5255 C29.3616,87.8475 28.5066,88.1275 27.5826,88.1275 C25.0326,88.1275 23.4926,86.5725 23.4926,84.1775 C23.4926,81.7815 25.0326,80.1995 27.5826,80.1995 C28.5066,80.1995 29.3616,80.4795 29.8376,80.8015" id="Fill-5" fill="#2D2D2C"></path>
                <mask id="mask-2" fill="white">
                    <use xlink:href="#path-1"></use>
                </mask>
                <g id="Clip-8"></g>
                <path d="M31.64,88.0015 L33.727,88.0015 L33.727,80.6335 L31.64,80.6335 L31.64,88.0015 Z M32.676,79.5825 C31.92,79.5825 31.346,78.9815 31.346,78.2245 C31.346,77.4685 31.92,76.8515 32.676,76.8515 C33.419,76.8515 34.021,77.4685 34.021,78.2245 C34.021,78.9815 33.419,79.5825 32.676,79.5825 L32.676,79.5825 Z" id="Fill-7" fill="#2D2D2C" mask="url(#mask-2)"></path>
                <path d="M38.2077,85.5222 C38.2077,86.1802 38.4317,86.4332 39.0057,86.4332 C39.2997,86.4332 39.5657,86.3482 39.8047,86.2372 L39.8047,87.8342 C39.4817,88.0152 39.0477,88.1272 38.4037,88.1272 C37.2127,88.1272 36.1207,87.5952 36.1207,85.5502 L36.1207,77.1042 L38.2077,77.1042 L38.2077,85.5222 Z" id="Fill-9" fill="#2D2D2C" mask="url(#mask-2)"></path>
                <path d="M41.37,88.0015 L43.457,88.0015 L43.457,80.6335 L41.37,80.6335 L41.37,88.0015 Z M42.406,79.5825 C41.65,79.5825 41.076,78.9815 41.076,78.2245 C41.076,77.4685 41.65,76.8515 42.406,76.8515 C43.149,76.8515 43.751,77.4685 43.751,78.2245 C43.751,78.9815 43.149,79.5825 42.406,79.5825 L42.406,79.5825 Z" id="Fill-10" fill="#2D2D2C" mask="url(#mask-2)"></path>
                <path d="M50.781,82.2165 L48.344,82.2165 L48.344,85.1995 C48.344,86.0275 48.694,86.4335 49.423,86.4335 C49.927,86.4335 50.389,86.3205 50.669,86.1535 L50.669,87.7635 C50.305,87.9735 49.633,88.1275 48.862,88.1275 C47.517,88.1275 46.257,87.4835 46.257,85.2415 L46.257,82.2165 L45.01,82.2165 L45.01,80.6335 L46.257,80.6335 L46.257,78.6025 L48.344,78.0845 L48.344,80.6335 L50.781,80.6335 L50.781,82.2165 Z" id="Fill-11" fill="#2D2D2C" mask="url(#mask-2)"></path>
                <path d="M56.4221,86.4607 L56.4221,84.7247 C54.4331,84.5837 53.9291,85.1307 53.9291,85.7047 C53.9291,86.2787 54.4051,86.6707 55.2741,86.6707 C55.6661,86.6707 56.1281,86.5727 56.4221,86.4607 M58.5091,82.9317 L58.5091,87.4277 C57.8371,87.8057 56.7301,88.1277 55.3581,88.1277 C53.2841,88.1277 51.8561,87.2867 51.8561,85.7187 C51.8561,83.6587 54.3071,83.3097 56.4221,83.4357 L56.4221,82.9447 C56.4221,82.3007 56.1701,81.8237 55.1481,81.8237 C54.3211,81.8237 53.4101,81.9927 52.4721,82.4967 L52.4721,80.8577 C53.4941,80.3537 54.3911,80.1997 55.5401,80.1997 C57.8371,80.1997 58.5091,81.5717 58.5091,82.9317" id="Fill-12" fill="#2D2D2C" mask="url(#mask-2)"></path>
                <path d="M65.6067,82.2165 L63.1697,82.2165 L63.1697,85.1995 C63.1697,86.0275 63.5197,86.4335 64.2487,86.4335 C64.7527,86.4335 65.2147,86.3205 65.4947,86.1535 L65.4947,87.7635 C65.1307,87.9735 64.4587,88.1275 63.6877,88.1275 C62.3427,88.1275 61.0827,87.4835 61.0827,85.2415 L61.0827,82.2165 L59.8357,82.2165 L59.8357,80.6335 L61.0827,80.6335 L61.0827,78.6025 L63.1697,78.0845 L63.1697,80.6335 L65.6067,80.6335 L65.6067,82.2165 Z" id="Fill-13" fill="#2D2D2C" mask="url(#mask-2)"></path>
                <path d="M68.6843,83.323 L72.1443,83.323 C72.0463,82.23 71.4303,81.684 70.4913,81.684 C69.4963,81.684 68.8383,82.161 68.6843,83.323 M73.9233,83.674 C73.9233,84.08 73.8953,84.276 73.8533,84.612 L68.6843,84.612 C68.8943,85.844 69.7073,86.503 71.0383,86.503 C72.0043,86.503 72.6483,86.264 73.4193,85.789 L73.4193,87.441 C72.7603,87.889 71.9483,88.128 70.8273,88.128 C68.1943,88.128 66.6113,86.475 66.6113,83.939 C66.6113,81.894 68.0683,80.2 70.4773,80.2 C72.4523,80.2 73.9233,81.572 73.9233,83.674" id="Fill-14" fill="#2D2D2C" mask="url(#mask-2)"></path>
                <path d="M77.4626,84.9343 C77.4626,85.8863 77.9526,86.4473 78.8916,86.4473 C79.4376,86.4473 79.9276,86.2793 80.4186,85.9563 L80.4186,80.4523 L82.5046,80.4523 L82.5046,86.9513 C81.3986,87.7353 80.1246,88.1273 78.6946,88.1273 C76.2576,88.1273 75.3756,86.7123 75.3756,84.8923 L75.3756,80.4523 L77.4626,80.4523 L77.4626,84.9343 Z" id="Fill-15" fill="#2D2D2C" mask="url(#mask-2)"></path>
                <path d="M89.49,80.4236 L89.49,82.2446 C89.098,82.0766 88.678,81.9646 88.132,81.9646 C87.557,81.9646 87.053,82.1046 86.576,82.4126 L86.576,88.0016 L84.49,88.0016 L84.49,81.3756 C85.26,80.6486 86.521,80.1996 87.823,80.1996 C88.426,80.1996 88.944,80.2696 89.49,80.4236" id="Fill-16" fill="#2D2D2C" mask="url(#mask-2)"></path>
                <path d="M99.3044,86.1384 L99.3044,82.2444 C98.9124,81.9644 98.4644,81.7964 97.9174,81.7964 C96.7264,81.7964 96.0404,82.5804 96.0404,84.2344 C96.0404,85.7464 96.7264,86.4604 97.9034,86.4604 C98.4644,86.4604 98.8844,86.3764 99.3044,86.1384 M99.3044,80.6754 L99.3044,77.1044 L101.3914,77.1044 L101.3914,86.9504 C100.5514,87.6374 99.3604,88.1274 97.9314,88.1274 C95.5224,88.1274 93.8974,86.7414 93.8974,84.2194 C93.8974,81.7824 95.3544,80.2004 97.5394,80.2004 C98.1274,80.2004 98.7304,80.3394 99.3044,80.6754" id="Fill-17" fill="#2D2D2C" mask="url(#mask-2)"></path>
                <polygon id="Fill-18" fill="#2D2D2C" mask="url(#mask-2)" points="102.969 81.4597 103.515 77.3277 105.35 77.3277 104.328 81.4597"></polygon>
                <path d="M108.9621,79.3591 L110.3911,77.1181 L112.9961,77.1181 L110.8251,79.3591 L108.9621,79.3591 Z M108.3321,83.3231 L111.7921,83.3231 C111.6931,82.2301 111.0771,81.6841 110.1391,81.6841 C109.1441,81.6841 108.4861,82.1611 108.3321,83.3231 L108.3321,83.3231 Z M113.5701,83.6731 C113.5701,84.0801 113.5431,84.2761 113.5011,84.6121 L108.3321,84.6121 C108.5421,85.8441 109.3551,86.5031 110.6851,86.5031 C111.6511,86.5031 112.2961,86.2641 113.0661,85.7891 L113.0661,87.4411 C112.4081,87.8891 111.5961,88.1281 110.4751,88.1281 C107.8411,88.1281 106.2591,86.4751 106.2591,83.9391 C106.2591,81.8941 107.7151,80.2001 110.1251,80.2001 C112.1001,80.2001 113.5701,81.5721 113.5701,83.6731 L113.5701,83.6731 Z" id="Fill-19" fill="#2D2D2C" mask="url(#mask-2)"></path>
                <path d="M122.2229,83.4353 L122.2229,88.0013 L120.1359,88.0013 L120.1359,83.3933 C120.1359,82.4413 119.6599,81.8803 118.7209,81.8803 C118.1609,81.8803 117.6569,82.0623 117.1799,82.3713 L117.1799,88.0013 L115.0929,88.0013 L115.0929,81.3753 C116.1719,80.5913 117.4889,80.2003 118.9169,80.2003 C121.3119,80.2003 122.2229,81.6143 122.2229,83.4353" id="Fill-20" fill="#2D2D2C" mask="url(#mask-2)"></path>
                <path d="M125.7331,83.323 L129.1921,83.323 C129.0951,82.23 128.4791,81.684 127.5401,81.684 C126.5451,81.684 125.8871,82.161 125.7331,83.323 M130.9721,83.674 C130.9721,84.08 130.9431,84.276 130.9011,84.612 L125.7331,84.612 C125.9431,85.844 126.7561,86.503 128.0861,86.503 C129.0531,86.503 129.6971,86.264 130.4681,85.789 L130.4681,87.441 C129.8091,87.889 128.9971,88.128 127.8761,88.128 C125.2431,88.128 123.6601,86.475 123.6601,83.939 C123.6601,81.894 125.1171,80.2 127.5251,80.2 C129.5011,80.2 130.9721,81.572 130.9721,83.674" id="Fill-21" fill="#2D2D2C" mask="url(#mask-2)"></path>
                <path d="M137.4953,80.4236 L137.4953,82.2446 C137.1023,82.0766 136.6833,81.9646 136.1373,81.9646 C135.5623,81.9646 135.0573,82.1046 134.5813,82.4126 L134.5813,88.0016 L132.4943,88.0016 L132.4943,81.3756 C133.2653,80.6486 134.5253,80.1996 135.8283,80.1996 C136.4313,80.1996 136.9493,80.2696 137.4953,80.4236" id="Fill-22" fill="#2D2D2C" mask="url(#mask-2)"></path>
                <path d="M143.6828,85.3962 L143.6828,82.2582 C143.3468,81.9782 142.9118,81.8102 142.3528,81.8102 C141.1898,81.8102 140.4758,82.6092 140.4758,83.9252 C140.4758,85.3542 141.1618,85.9992 142.1848,85.9992 C142.7308,85.9992 143.1928,85.8862 143.6828,85.3962 M145.7708,81.3752 L145.7708,86.8252 C145.7708,89.2622 144.2718,90.5512 141.9318,90.5512 C141.1058,90.5512 140.3498,90.4112 139.8028,90.1172 L139.8028,88.5052 C140.3498,88.7722 141.0078,88.9822 141.7498,88.9822 C143.2768,88.9822 143.7248,88.2682 143.7248,87.0212 L143.7248,86.9092 C143.1368,87.4142 142.4638,87.5952 141.6238,87.5952 C139.7608,87.5952 138.3318,86.2222 138.3318,83.9962 C138.3318,81.8942 139.8448,80.2002 142.3798,80.2002 C143.7398,80.2002 144.8038,80.6052 145.7708,81.3752" id="Fill-23" fill="#2D2D2C" mask="url(#mask-2)"></path>
                <path d="M147.825,88.0015 L149.912,88.0015 L149.912,80.6335 L147.825,80.6335 L147.825,88.0015 Z M148.862,79.5825 C148.105,79.5825 147.531,78.9815 147.531,78.2245 C147.531,77.4685 148.105,76.8515 148.862,76.8515 C149.604,76.8515 150.206,77.4685 150.206,78.2245 C150.206,78.9815 149.604,79.5825 148.862,79.5825 L148.862,79.5825 Z" id="Fill-24" fill="#2D2D2C" mask="url(#mask-2)"></path>
                <path d="M153.6496,83.323 L157.1096,83.323 C157.0106,82.23 156.3946,81.684 155.4566,81.684 C154.4616,81.684 153.8036,82.161 153.6496,83.323 M158.8876,83.674 C158.8876,84.08 158.8606,84.276 158.8186,84.612 L153.6496,84.612 C153.8596,85.844 154.6716,86.503 156.0036,86.503 C156.9686,86.503 157.6136,86.264 158.3836,85.789 L158.3836,87.441 C157.7256,87.889 156.9136,88.128 155.7936,88.128 C153.1596,88.128 151.5766,86.475 151.5766,83.939 C151.5766,81.894 153.0336,80.2 155.4426,80.2 C157.4176,80.2 158.8876,81.572 158.8876,83.674" id="Fill-25" fill="#2D2D2C" mask="url(#mask-2)"></path>
                <path d="M168.9123,86.1384 L168.9123,82.2444 C168.5193,81.9644 168.0713,81.7964 167.5253,81.7964 C166.3353,81.7964 165.6483,82.5804 165.6483,84.2344 C165.6483,85.7464 166.3353,86.4604 167.5123,86.4604 C168.0713,86.4604 168.4923,86.3764 168.9123,86.1384 M168.9123,80.6754 L168.9123,77.1044 L170.9993,77.1044 L170.9993,86.9504 C170.1593,87.6374 168.9683,88.1274 167.5393,88.1274 C165.1303,88.1274 163.5053,86.7414 163.5053,84.2194 C163.5053,81.7824 164.9623,80.2004 167.1473,80.2004 C167.7353,80.2004 168.3383,80.3394 168.9123,80.6754" id="Fill-26" fill="#2D2D2C" mask="url(#mask-2)"></path>
                <path d="M174.5793,83.323 L178.0393,83.323 C177.9413,82.23 177.3253,81.684 176.3873,81.684 C175.3913,81.684 174.7333,82.161 174.5793,83.323 M179.8183,83.674 C179.8183,84.08 179.7903,84.276 179.7483,84.612 L174.5793,84.612 C174.7893,85.844 175.6013,86.503 176.9333,86.503 C177.8993,86.503 178.5433,86.264 179.3133,85.789 L179.3133,87.441 C178.6553,87.889 177.8433,88.128 176.7233,88.128 C174.0893,88.128 172.5063,86.475 172.5063,83.939 C172.5063,81.894 173.9633,80.2 176.3723,80.2 C178.3483,80.2 179.8183,81.572 179.8183,83.674" id="Fill-27" fill="#2D2D2C" mask="url(#mask-2)"></path>
                <path d="M183.428,82.3288 L183.428,86.0968 C183.806,86.3768 184.227,86.5308 184.787,86.5308 C185.991,86.5308 186.678,85.7468 186.678,84.0938 C186.678,82.5808 186.146,81.8658 184.955,81.8658 C184.353,81.8658 183.876,82.0198 183.428,82.3288 M188.807,84.0938 C188.807,86.5448 187.336,88.1278 185.165,88.1278 C184.576,88.1278 183.989,87.9878 183.428,87.6658 L183.428,90.4248 L181.341,90.4248 L181.341,81.3758 C182.167,80.6898 183.498,80.1998 184.927,80.1998 C187.35,80.1998 188.807,81.5868 188.807,84.0938" id="Fill-28" fill="#2D2D2C" mask="url(#mask-2)"></path>
                <path d="M192.3459,84.9343 C192.3459,85.8863 192.8359,86.4473 193.7759,86.4473 C194.3219,86.4473 194.8119,86.2793 195.3019,85.9563 L195.3019,80.4523 L197.3889,80.4523 L197.3889,86.9513 C196.2829,87.7353 195.0079,88.1273 193.5789,88.1273 C191.1419,88.1273 190.2589,86.7123 190.2589,84.8923 L190.2589,80.4523 L192.3459,80.4523 L192.3459,84.9343 Z" id="Fill-29" fill="#2D2D2C" mask="url(#mask-2)"></path>
                <path d="M199.527,88.0015 L201.614,88.0015 L201.614,80.6335 L199.527,80.6335 L199.527,88.0015 Z M200.563,79.5825 C199.807,79.5825 199.233,78.9815 199.233,78.2245 C199.233,77.4685 199.807,76.8515 200.563,76.8515 C201.305,76.8515 201.907,77.4685 201.907,78.2245 C201.907,78.9815 201.305,79.5825 200.563,79.5825 L200.563,79.5825 Z" id="Fill-30" fill="#2D2D2C" mask="url(#mask-2)"></path>
                <path d="M209.2307,80.6755 L209.2307,82.2725 C208.3627,81.9075 207.7467,81.7395 206.9197,81.7395 C206.0657,81.7395 205.6177,82.0345 205.6177,82.5105 C205.6177,83.6035 209.7207,82.7775 209.7207,85.4385 C209.7207,86.9085 208.7687,88.1275 206.2187,88.1275 C205.0847,88.1275 204.0767,87.7915 203.5297,87.4275 L203.5297,85.7325 C204.4407,86.2925 205.5187,86.6145 206.4157,86.6145 C207.3397,86.6145 207.7327,86.2085 207.7327,85.7045 C207.7327,84.5705 203.6277,85.4805 203.6277,82.7625 C203.6277,81.3205 204.8327,80.1995 206.9197,80.1995 C207.9007,80.1995 208.5727,80.3535 209.2307,80.6755" id="Fill-31" fill="#2D2D2C" mask="url(#mask-2)"></path>
                <path d="M218.1907,78.1824 L220.1937,78.1824 L220.1937,86.5174 L221.8887,86.5174 L221.8887,88.0014 L216.0197,88.0014 L216.0197,86.5174 L218.0787,86.5174 L218.0787,80.8854 C217.0977,81.6144 216.3137,81.9644 215.0667,82.1194 L215.0667,80.3954 C216.8877,80.0594 218.1907,78.9814 218.1907,78.5184 L218.1907,78.1824 Z" id="Fill-32" fill="#2D2D2C" mask="url(#mask-2)"></path>
                <path d="M226.9123,79.7654 C225.7773,79.7654 225.2173,80.3814 225.2173,81.2784 C225.2173,82.2034 225.8193,82.7204 226.9123,82.7204 C227.7103,82.7204 228.6903,82.3564 228.6903,81.5164 C228.6903,80.7594 228.1863,79.7654 226.9123,79.7654 M228.7893,83.7014 C228.2003,84.1074 227.5003,84.3184 226.6183,84.3184 C224.6143,84.3184 223.1723,83.1554 223.1723,81.2784 C223.1723,79.2184 224.8813,78.0704 226.8843,78.0704 C229.4333,78.0704 230.8483,79.8494 230.8483,82.6094 C230.8483,86.0274 228.8593,88.1274 226.1133,88.1274 C225.3293,88.1274 224.4743,87.9884 223.9713,87.6654 L223.9713,85.9144 C224.6143,86.2224 225.2453,86.3344 226.0583,86.3344 C227.4733,86.3344 228.5093,85.5084 228.7893,83.7014" id="Fill-33" fill="#2D2D2C" mask="url(#mask-2)"></path>
                <path d="M237.4553,80.9841 C237.4553,80.0881 236.7683,79.7371 235.8163,79.7371 C234.8783,79.7371 234.2053,80.0881 234.2053,80.9841 C234.2053,81.7681 234.8083,82.2301 235.8163,82.2301 C236.8393,82.2301 237.4553,81.7681 237.4553,80.9841 M234.0373,85.0041 C234.0373,85.9421 234.7373,86.4191 235.8163,86.4191 C236.9233,86.4191 237.6093,85.9421 237.6093,85.0041 C237.6093,84.2481 236.9363,83.7291 235.8163,83.7291 C234.7103,83.7291 234.0373,84.2481 234.0373,85.0041 M231.9643,85.2141 C231.9643,84.0511 232.7343,83.2531 233.5753,82.9031 C232.6793,82.4411 232.2863,81.6291 232.2863,80.8301 C232.2863,79.0231 233.9393,78.0701 235.8163,78.0701 C237.7073,78.0701 239.3463,79.0231 239.3463,80.8301 C239.3463,81.6291 238.9683,82.4411 238.0863,82.9031 C238.9123,83.2531 239.6833,84.0511 239.6833,85.2141 C239.6833,87.0631 238.0713,88.1281 235.8163,88.1281 C233.5893,88.1281 231.9643,87.0631 231.9643,85.2141" id="Fill-34" fill="#2D2D2C" mask="url(#mask-2)"></path>
                <path d="M240.8127,78.196 L248.4187,78.196 L248.4187,80.158 C248.4187,83.057 244.9307,83.996 244.9307,86.629 L244.9307,88.002 L242.8017,88.002 L242.8017,86.699 C242.8017,83.071 246.3037,82.3 246.3037,80.214 L246.3037,79.989 L240.8127,79.989 L240.8127,78.196 Z" id="Fill-35" fill="#2D2D2C" mask="url(#mask-2)"></path>
                <path d="M33.0378,29.5163 L17.0248,29.5163 L17.0248,51.7653 C17.0248,57.8333 19.5538,60.9523 24.6098,60.9523 C27.5588,60.9523 30.1718,60.1103 31.8578,59.0983 L31.8578,65.9253 C29.8348,67.1053 26.3798,68.0323 22.4188,68.0323 C14.5798,68.0323 8.3438,63.5653 8.3438,51.9353 L8.3438,29.5163 L-0.0002,29.5163 L-0.0002,22.9423 L8.3438,22.9423 L8.3438,9.0363 L17.0248,6.8453 L17.0248,22.9423 L33.0378,22.9423 L33.0378,29.5163 Z" id="Fill-36" fill="#2D2D2C" mask="url(#mask-2)"></path>
                <path d="M43.8259,39.9665 L70.1209,39.9665 C69.6159,31.3705 64.9809,27.1565 57.4799,27.1565 C49.8099,27.1565 44.7529,31.6235 43.8259,39.9665 M77.5379,41.2315 C77.5379,43.2535 77.4539,44.0125 77.2839,45.8665 L43.7419,45.8665 C44.7529,55.4745 50.6529,61.1215 59.9229,61.1215 C65.8229,61.1215 69.6999,59.6045 74.5039,56.5705 L74.5039,63.7335 C70.2889,66.4305 65.8229,68.0315 59.2489,68.0315 C44.8369,68.0315 35.2289,58.5925 35.2289,42.9165 C35.2289,30.5285 43.7419,20.4985 57.4799,20.4985 C69.1099,20.4985 77.5379,28.7585 77.5379,41.2315" id="Fill-37" fill="#2D2D2C" mask="url(#mask-2)"></path>
                <path d="M126.2522,56.8816 L126.2522,64.5606 C126.2522,65.7726 123.1342,67.9506 120.1842,67.9506 C115.0432,67.9506 111.0812,65.1686 108.4682,62.0506 L93.2972,42.8346 L103.6652,42.8346 L103.5802,42.9186 L114.6212,56.6566 C116.5602,59.1856 118.8352,59.7656 121.8692,59.7656 C123.7242,59.7656 125.4102,58.2986 126.2522,56.8816" id="Fill-38" fill="#43A255" mask="url(#mask-2)"></path>
                <polygon id="Fill-39" fill="#009EE2" mask="url(#mask-2)" points="125.0725 20.0593 103.6645 40.9613 93.2975 40.9613 114.1155 20.0593"></polygon>
                <polygon id="Fill-40" fill="#009EE2" mask="url(#mask-2)" points="83.521 67.2765 92.202 67.2765 92.202 42.8345 83.521 42.8345"></polygon>
                <polygon id="Fill-41" fill="#009EE2" mask="url(#mask-2)" points="83.521 40.9615 92.202 40.9615 92.202 0.0005 83.521 0.0005"></polygon>
                <path d="M160.8928,23.7849 L160.8928,30.6119 C156.5108,28.3369 152.6328,27.1569 147.6608,27.1569 C141.0028,27.1569 137.4628,29.7689 137.4628,34.1519 C137.4628,42.9169 163.8418,36.5959 163.8418,52.4399 C163.8418,60.5319 157.6908,68.0319 143.7008,68.0319 C137.1258,68.0319 131.5638,66.6079 128.2768,64.4179 L128.2768,57.0009 C133.4178,60.3719 139.0648,61.4579 144.2898,61.4579 C152.1268,61.4579 155.4988,57.7499 155.4988,53.1989 C155.4988,44.2649 129.2038,51.0919 129.2038,34.8259 C129.2038,27.5769 135.6098,20.4979 147.5768,20.4979 C153.1388,20.4979 157.2688,21.6779 160.8928,23.7849" id="Fill-42" fill="#2D2D2C" mask="url(#mask-2)"></path>
                <path d="M170.501,67.2735 L179.182,67.2735 L179.182,22.9425 L170.501,22.9425 L170.501,67.2735 Z M174.883,14.1775 C171.259,14.1775 168.647,11.3965 168.647,7.7725 C168.647,4.3165 171.259,1.4515 174.883,1.4515 C178.254,1.4515 181.035,4.3165 181.035,7.7725 C181.035,11.3965 178.254,14.1775 174.883,14.1775 L174.883,14.1775 Z" id="Fill-43" fill="#2D2D2C" mask="url(#mask-2)"></path>
                <path d="M214.6633,59.4353 L214.6633,46.1193 C199.9993,44.8543 195.1103,48.9853 195.1103,53.7893 C195.1103,58.6763 198.6503,61.5413 205.4763,61.5413 C208.1743,61.5413 212.3043,60.6163 214.6633,59.4353 M223.3443,35.8373 L223.3443,63.4813 C219.6363,65.6713 212.9773,68.0323 205.7303,68.0323 C192.9193,68.0323 186.5993,61.7953 186.5993,54.2103 C186.5993,43.4223 198.0593,39.0403 214.6633,40.2203 L214.6633,35.9213 C214.6633,31.1183 212.8933,27.4093 205.8143,27.4093 C200.0833,27.4093 195.1943,28.6733 190.0543,31.6233 L190.0543,24.7123 C195.1103,21.6783 200.3363,20.4983 206.8253,20.4983 C219.9733,20.4983 223.3443,28.8423 223.3443,35.8373" id="Fill-44" fill="#2D2D2C" mask="url(#mask-2)"></path>
                <path d="M238.4768,54.3786 C238.4768,59.1826 239.9938,60.9516 243.7868,60.9516 C245.9778,60.9516 247.5798,60.3616 249.0118,59.5206 L249.0118,66.3466 C247.2418,67.3576 245.1348,68.0316 241.7638,68.0316 C234.8538,68.0316 229.7958,64.6606 229.7958,54.4626 L229.7958,1.8736 L238.4768,1.8736 L238.4768,54.3786 Z" id="Fill-45" fill="#2D2D2C" mask="url(#mask-2)"></path>
            </g>
        </g>
    </g>
</svg>